<svg width="20" height="20" viewBox="0 0 20 20" fill="none" xmlns="http://www.w3.org/2000/svg">
<path d="M4.00997 14.1361L2.14098 2.00015H0.999992C0.734777 2.00015 0.480425 1.8948 0.292891 1.70726C0.105356 1.51973 0 1.26538 0 1.00016C0 0.734947 0.105356 0.480595 0.292891 0.29306C0.480425 0.105525 0.734777 0.000169327 0.999992 0.000169327H2.98497C3.22622 -0.00428438 3.46083 0.0792512 3.64497 0.235167C3.83397 0.394103 3.95726 0.617526 3.99097 0.862162L4.31896 3.00014H11.9999V5.00013H4.62696L5.85695 13.0001H15.2559L16.7559 8.0001H18.8438L16.9579 14.287C16.8961 14.4931 16.7696 14.6738 16.597 14.8023C16.4244 14.9307 16.215 15.0001 15.9999 15H5.01596C4.76788 15.0046 4.52708 14.9161 4.34096 14.752C4.15958 14.5935 4.04166 14.3747 4.00897 14.1361H4.00997ZM7.99993 18C7.99993 18.5304 7.78922 19.0391 7.41415 19.4142C7.03908 19.7893 6.53038 20 5.99995 20C5.46952 20 4.96082 19.7893 4.58575 19.4142C4.21068 19.0391 3.99997 18.5304 3.99997 18C3.99997 17.4696 4.21068 16.9609 4.58575 16.5858C4.96082 16.2107 5.46952 16 5.99995 16C6.53038 16 7.03908 16.2107 7.41415 16.5858C7.78922 16.9609 7.99993 17.4696 7.99993 18ZM16.9999 18C16.9999 18.5304 16.7891 19.0391 16.4141 19.4142C16.039 19.7893 15.5303 20 14.9999 20C14.4694 20 13.9607 19.7893 13.5857 19.4142C13.2106 19.0391 12.9999 18.5304 12.9999 18C12.9999 17.4696 13.2106 16.9609 13.5857 16.5858C13.9607 16.2107 14.4694 16 14.9999 16C15.5303 16 16.039 16.2107 16.4141 16.5858C16.7891 16.9609 16.9999 17.4696 16.9999 18ZM16.9999 0.000169327C17.2651 0.000169327 17.5194 0.105525 17.707 0.29306C17.8945 0.480595 17.9998 0.734947 17.9998 1.00016V2.00015H18.9998C19.2651 2.00015 19.5194 2.10551 19.7069 2.29304C19.8945 2.48058 19.9998 2.73493 19.9998 3.00014C19.9998 3.26536 19.8945 3.51971 19.7069 3.70724C19.5194 3.89478 19.2651 4.00014 18.9998 4.00014H17.9998V5.00013C17.9998 5.26534 17.8945 5.51969 17.707 5.70723C17.5194 5.89476 17.2651 6.00012 16.9999 6.00012C16.7346 6.00012 16.4803 5.89476 16.2928 5.70723C16.1052 5.51969 15.9999 5.26534 15.9999 5.00013V4.00014H14.9999C14.7347 4.00014 14.4803 3.89478 14.2928 3.70724C14.1052 3.51971 13.9999 3.26536 13.9999 3.00014C13.9999 2.73493 14.1052 2.48058 14.2928 2.29304C14.4803 2.10551 14.7347 2.00015 14.9999 2.00015H15.9999V1.00016C15.9999 0.734947 16.1052 0.480595 16.2928 0.29306C16.4803 0.105525 16.7346 0.000169327 16.9999 0.000169327Z" fill="#66605E"/>
</svg>
